<?xml version="1.0" standalone="no"?>
<!DOCTYPE svg PUBLIC "-//W3C//DTD SVG 20010904//EN"
 "http://www.w3.org/TR/2001/REC-SVG-20010904/DTD/svg10.dtd">
<svg version="1.0" xmlns="http://www.w3.org/2000/svg"
 width="261.000000pt" height="261.000000pt" viewBox="0 0 261.000000 261.000000"
 preserveAspectRatio="xMidYMid meet">
<metadata>
Created by potrace 1.11, written by Peter Selinger 2001-2013
</metadata>
<g transform="translate(0.000000,261.000000) scale(0.100000,-0.100000)"
fill="#000000" stroke="none">
<path d="M0 1310 l0 -1300 1305 0 1305 0 0 1300 0 1300 -1305 0 -1305 0 0
-1300z m1623 645 c142 -37 231 -116 270 -240 62 -200 -14 -408 -181 -491 -31
-16 -59 -30 -60 -31 -2 -1 98 -123 222 -272 l226 -271 -193 0 -194 0 -194 252
-194 251 -3 -251 -2 -252 -155 0 -155 0 0 660 0 660 278 0 c214 0 291 -3 335
-15z m-793 -330 l0 -95 -150 0 -150 0 0 95 0 95 150 0 150 0 0 -95z m0 -565
l0 -410 -150 0 -150 0 0 410 0 410 150 0 150 0 0 -410z"/>
<path d="M1320 1565 l0 -178 80 6 c145 11 195 55 195 172 0 117 -50 161 -195
172 l-80 6 0 -178z"/>
</g>
</svg>
