<?xml version="1.0" standalone="no"?>
<!DOCTYPE svg PUBLIC "-//W3C//DTD SVG 20010904//EN"
 "http://www.w3.org/TR/2001/REC-SVG-20010904/DTD/svg10.dtd">
<svg version="1.0" xmlns="http://www.w3.org/2000/svg"
 width="261.000000pt" height="261.000000pt" viewBox="0 0 261.000000 261.000000"
 preserveAspectRatio="xMidYMid meet">
<metadata>
Created by potrace 1.11, written by Peter Selinger 2001-2013
</metadata>
<g transform="translate(0.000000,261.000000) scale(0.100000,-0.100000)"
fill="#000000" stroke="none">
<path d="M0 1310 l0 -1300 1305 0 1305 0 0 1300 0 1300 -1305 0 -1305 0 0
-1300z m1703 815 c144 -30 277 -126 332 -238 38 -80 58 -188 51 -281 -16 -195
-106 -333 -268 -411 l-67 -32 280 -336 c153 -185 279 -338 279 -341 0 -3 -107
-6 -238 -6 l-238 0 -239 310 c-131 171 -244 315 -252 321 -11 10 -13 -44 -13
-310 l0 -321 -190 0 -190 0 0 830 0 830 343 0 c259 0 359 -4 410 -15z m-975
-417 l3 -118 -191 0 -190 0 0 120 0 120 188 -2 187 -3 3 -117z m2 -713 l0
-515 -190 0 -190 0 0 515 0 515 190 0 190 0 0 -515z"/>
<path d="M1330 1632 l0 -222 48 0 c219 1 312 67 312 222 0 143 -73 204 -258
215 l-102 6 0 -221z"/>
</g>
</svg>
